#!OML:ASF E:/inclinewalkrobotboard/Project1/Captureday1/Session1/subject1.ASF
:FULLY-SPECIFIED
:DEGREES
251
root 0 0 0 -8.058833564952664 -7.21634623226387 -5.018722012022916
lowerback 13.659450819560867 1.8516462591953784 4.982852109962001
upperback 2.2759081387894433 3.148825273134168 1.5503287518371467
thorax -5.2108011232733915 1.5540355547572977 -1.7236242466802327
lowerneck -17.271983637418884 -3.7410392752995927 -1.6772257821213454
upperneck 19.08917078813305 -4.885861384656286 0.8334395776451315
head 8.838984034053496 -2.358378442105859 -0.060721268509128734
rclavicle 3.0384261767660425E-15 1.0293224506316773E-15
rhumerus -47.53503094020214 -17.992416942016305 -75.23124927337118
rradius 24.797711807913423
rwrist -3.1717765245998066
rhand -21.978590310732134 27.943814408705173
rfingers 7.12502000000006
rthumb 4.4218926903604086 -2.3609531208441545
lclavicle -4.2798169629988705E-15 -6.536947819230473E-15
lhumerus -39.95788228138012 0.7565150177298019 85.9269984923441
lradius 27.198905483450545
lwrist 7.167050974921157
lhand -31.295365710476162 22.726555396783322
lfingers 7.125020000000036
lthumb -4.514164928190237 53.33037931423309
rfemur -23.265251997768445 20.45408653536734 36.58720876809603
rtibia 26.7064441117113
rfoot -10.357803732675967 -10.188329181147308
rtoes -3.049538597707617
lfemur -18.956338695588578 0.05655266178416518 -15.45089846132309
ltibia 53.69722958319604
lfoot 3.958045246920687 -11.477412021612572
ltoes -14.258697041328785
252
root 0 0 0 -7.810309210682377 -8.069657616774945 -5.351490661374189
lowerback 13.64023766017364 1.9618646102358033 5.261638496794985
upperback 2.2093160188149845 3.297510382331545 1.5115220972083057
thorax -5.276185912056418 1.6133617677563867 -1.9348950270202057
lowerneck -17.13399163995064 -3.7738535172661836 -1.6523925379278466
upperneck 19.289014661640724 -4.975081311224932 0.8700503417921168
head 8.8874238201172 -2.391988282906885 -0.05523203987036984
rclavicle 3.157306790114024E-15 8.548051280267296E-16
rhumerus -47.146372304008146 -17.842836211981734 -74.86167142751636
rradius 25.204187398384672
rwrist -3.0944940587146625
rhand -22.195068088997218 28.16324601348417
rfingers 7.125020000000061
rthumb 4.218626558063747 -2.159970228400228
lclavicle -4.67110500099372E-15 -6.221694830848219E-15
lhumerus -41.0887448059904 1.4751533428395485 86.06629650405462
lradius 26.92054839259216
lwrist 6.338632890588432
lhand -31.444336024208102 22.259689755887873
lfingers 7.125020000000034
lthumb -4.656266928630139 52.88589003668686
rfemur -22.036324851401574 18.061382655858907 35.06213099380463
rtibia 27.90015771851844
rfoot -10.779178973557158 -9.662805791745628
rtoes -3.338473733089941
lfemur -19.244610756739995 -1.2455606450485597 -16.369611716137534
ltibia 48.01896879402736
lfoot 2.122572417357052 -8.903280588786032
ltoes -13.284657929624599
253
root 0 0 0 -7.664955557735041 -8.327422578600473 -5.435879104474948
lowerback 13.641045250095804 1.991260063497393 5.316100289803507
upperback 2.178396378895755 3.3326575212827523 1.486560617760179
thorax -5.3099211903399555 1.626758727917541 -1.9945872691774076
lowerneck -17.090804824571393 -3.791142507815044 -1.651540044090557
upperneck 19.382256518988356 -5.014154488380848 0.8841135525209785
head 8.914890280199135 -2.408066283052439 -0.05300596744687014
rclavicle 3.1467881771276903E-15 5.450787259361099E-16
rhumerus -46.877483174098344 -17.75709775194796 -74.35788429618384
rradius 25.539619125639426
rwrist -2.983300376177432
rhand -22.382370029223736 28.36241945829068
rfingers 7.125020000000063
rthumb 4.041802435615232 -1.9770782931783586
lclavicle -4.821723124599035E-15 -6.123358234314793E-15
lhumerus -41.668217828359154 1.9645581690578178 86.06389250110621
lradius 26.81549839724807
lwrist 5.702933214583883
lhand -31.61305348059479 21.9714658793105
lfingers 7.125020000000033
lthumb -4.817147077388196 52.626440060077066
rfemur -21.333046900534484 16.352816508756646 33.90373454536683
rtibia 29.017505642861828
rfoot -10.809691272137773 -9.598759660410627
rtoes -3.6869725677834317
lfemur -16.14889666247877 -3.753450103549943 -17.785982662013822
ltibia 37.45610238159499
lfoot -1.5992207043891895 -5.22935391088059
ltoes -11.141816060984874
254
root 0 0 0 -7.680701761024274 -8.049217898906088 -5.296548187893783
lowerback 13.650783677388262 1.9596581680599487 5.17319724829077
upperback 2.199429635468576 3.28340179795589 1.4691703081601393
thorax -5.289898207928982 1.608669612875977 -1.9295127132907668
lowerneck -17.11340004426945 -3.7968717519587303 -1.6725188901031516
upperneck 19.352096622243707 -5.012130287970984 0.8885677540781041
head 8.90842744045545 -2.409578603464575 -0.049535493491662974
rclavicle 2.8921705305535986E-15 -2.849525634507927E-17
rhumerus -46.736012466470896 -17.73530273658444 -73.68425785636873
rradius 25.822912135567876
rwrist -2.8540934687018904
rhand -22.53667886570397 28.554085192869515
rfingers 7.125020000000064
rthumb 3.89539184589362 -1.798148825195618
lclavicle -4.9285654302957625E-15 -6.36733827248214E-15
lhumerus -41.66243362157119 2.227578382349999 85.87587307096476
lradius 26.837236256497757
lwrist 5.193284516826701
lhand -31.86520546033494 21.804280235454492
lfingers 7.125020000000033
lthumb -5.05745640231326 52.50489942489158
rfemur -21.217408691661205 15.589983364204102 33.190980043064215
rtibia 30.238462057228478
rfoot -10.096944647311005 -9.942193385804496
rtoes -4.164619891467655
lfemur -10.863390033608923 -6.495341599014873 -18.690447968791034
ltibia 24.558786825271355
lfoot -6.468891711348693 -1.5113650313510973
ltoes -7.871305534595885
